<mxfile host="app.diagrams.net" modified="2023-11-06T09:19:01.762Z" agent="Mozilla/5.0 (Macintosh; Intel Mac OS X 10_15_7) AppleWebKit/537.36 (KHTML, like Gecko) Chrome/118.0.0.0 Safari/537.36" version="22.0.8" etag="S_bzjKx8SDoiFrU1bene" type="github">
  <diagram name="Page-1" id="SrOD3sqG6qAQk4lOOv39">
    <mxGraphModel>
      <root>
        <mxCell id="0" />
        <mxCell id="1" parent="0" />
      </root>
    </mxGraphModel>
  </diagram>
</mxfile>
